<svg width="473" height="452" viewBox="0 0 473 452" fill="none" xmlns="http://www.w3.org/2000/svg">
<path d="M473 345.688H0V345.913H473V345.688Z" fill="#EBEBEB"/>
<path d="M80.9596 354.297H49.6262V354.523H80.9596V354.297Z" fill="#EBEBEB"/>
<path d="M214.322 351.844H161.898V352.069H214.322V351.844Z" fill="#EBEBEB"/>
<path d="M104.242 359.666H86.0859V359.892H104.242V359.666Z" fill="#EBEBEB"/>
<path d="M405.506 354.185H364.645V354.41H405.506V354.185Z" fill="#EBEBEB"/>
<path d="M419.919 354.185H413.928V354.41H419.919V354.185Z" fill="#EBEBEB"/>
<path d="M306.552 357.357H262.243V357.582H306.552V357.357Z" fill="#EBEBEB"/>
<path d="M224.215 305.371H41.5436C38.5665 305.371 36.1438 303.056 36.1438 300.211V54.8366C36.1438 51.9917 38.5665 49.6766 41.5436 49.6766H224.215C227.191 49.6766 229.614 51.9917 229.614 54.8366V300.211C229.614 303.056 227.191 305.371 224.215 305.371ZM41.5436 49.9035C38.6961 49.9035 36.3803 52.1165 36.3803 54.8375V300.212C36.3803 302.933 38.6961 305.146 41.5436 305.146H224.215C227.062 305.146 229.378 302.933 229.378 300.212V54.8366C229.378 52.1165 227.062 49.9026 224.215 49.9026L41.5436 49.9035Z" fill="#EBEBEB"/>
<path d="M428.831 305.371H246.161C243.183 305.371 240.762 303.056 240.762 300.211V54.8366C240.762 51.9917 243.184 49.6766 246.161 49.6766H428.831C431.809 49.6766 434.231 51.9917 434.231 54.8366V300.211C434.232 303.056 431.809 305.371 428.831 305.371ZM246.161 49.9035C243.314 49.9035 240.998 52.1165 240.998 54.8375V300.212C240.998 302.933 243.314 305.146 246.161 305.146H428.831C431.679 305.146 433.995 302.933 433.995 300.212V54.8366C433.995 52.1165 431.679 49.9026 428.831 49.9026L246.161 49.9035Z" fill="#EBEBEB"/>
<path d="M281.758 67.2522H99.1248V192.539H281.758V67.2522Z" fill="#FAFAFA"/>
<path d="M271.364 192.539L224.911 67.2522H190.05L236.503 192.539H271.364Z" fill="white"/>
<path d="M177.624 192.539L131.171 67.2522H118.455L164.909 192.539H177.624Z" fill="white"/>
<path d="M90.4168 62.9437H290.465C290.912 62.9437 291.277 63.2926 291.277 63.7193C291.277 64.146 290.912 64.495 290.465 64.495H90.4168C89.9703 64.495 89.6051 64.146 89.6051 63.7193C89.6051 63.2926 89.9703 62.9437 90.4168 62.9437Z" fill="#E0E0E0"/>
<path d="M191.523 66.9828H189.359V192.809H191.523V66.9828Z" fill="#F0F0F0"/>
<path d="M189.359 66.9828H188.277V192.809H189.359V66.9828Z" fill="#E0E0E0"/>
<path d="M97.8629 128.861V130.93H283.02V128.861H97.8629Z" fill="#F0F0F0"/>
<path d="M97.8628 191.677V68.1137V66.0453H100.026H280.855H283.02V68.1137V191.677V193.745H280.855H100.026H97.8628V191.677ZM280.855 191.677V68.1137H100.026V191.677H280.855Z" fill="#F0F0F0"/>
<path d="M97.8627 66.0453H96.7805V193.745H97.8627V66.0453Z" fill="#E0E0E0"/>
<path opacity="0.5" d="M124.711 61.048V208.18H85.6224L92.7912 61.048H124.711Z" fill="#EBEBEB"/>
<path opacity="0.5" d="M255.09 61.048V208.18H294.179L287.01 61.048H255.09Z" fill="#EBEBEB"/>
<path d="M73.4881 225.809H58.5801V341.368H73.4881V225.809Z" fill="#F0F0F0"/>
<path d="M225.693 341.368H61.4427V345.689H225.693V341.368Z" fill="#F0F0F0"/>
<path d="M73.4889 341.367H228.556L228.556 225.809H73.4889L73.4889 341.367Z" fill="#F5F5F5"/>
<path d="M71.9414 222.039H56.7042V225.809H71.9414V222.039Z" fill="#F0F0F0"/>
<path d="M71.9419 225.809L230.432 225.809V222.039L71.9419 222.039V225.809Z" fill="#FAFAFA"/>
<path d="M223.195 290.84H78.8491V233.725H223.195V290.84ZM79.85 289.883H222.194V234.681H79.85V289.883Z" fill="#E0E0E0"/>
<path d="M223.195 333.451H78.8491V296.558H223.195V333.451ZM79.85 332.495H222.194V297.515H79.85V332.495Z" fill="#E0E0E0"/>
<path d="M202.425 237.27H99.6185C98.8911 237.27 98.296 236.702 98.296 236.006V235.466C98.296 234.771 98.8911 234.202 99.6185 234.202H202.425C203.153 234.202 203.748 234.771 203.748 235.466V236.006C203.748 236.702 203.153 237.27 202.425 237.27Z" fill="#E0E0E0"/>
<path d="M202.425 300.105H99.6185C98.8911 300.105 98.296 299.536 98.296 298.841V298.301C98.296 297.606 98.8911 297.037 99.6185 297.037H202.425C203.153 297.037 203.748 297.606 203.748 298.301V298.841C203.748 299.536 203.153 300.105 202.425 300.105Z" fill="#E0E0E0"/>
<path d="M329.075 340.143H415.801L415.801 87.28H329.075V340.143Z" fill="#F0F0F0"/>
<path d="M329.075 87.2794H326.323V340.143H329.075V87.2794Z" fill="#E0E0E0"/>
<path d="M343.146 330.498H401.73L401.73 96.9257H343.146V330.498Z" fill="#FAFAFA"/>
<path d="M236.5 386.515C337.8 386.515 419.919 381.932 419.919 376.279C419.919 370.626 337.8 366.043 236.5 366.043C135.201 366.043 53.0811 370.626 53.0811 376.279C53.0811 381.932 135.201 386.515 236.5 386.515Z" fill="#F5F5F5"/>
<path d="M135.615 368.41L143.021 365.725L138.487 348.619L131.08 351.304L135.615 368.41Z" fill="#B55B52"/>
<path d="M79.9625 368.547H87.8843L89.0706 351.017H81.1488L79.9625 368.547Z" fill="#B55B52"/>
<path d="M88.6771 367.67H79.0184C78.6949 367.67 78.4253 367.885 78.3704 368.187L77.1557 374.916C77.0299 375.614 77.6382 376.275 78.3855 376.262C81.4903 376.211 83.7484 376.037 87.662 376.037C90.0696 376.037 97.3434 376.275 100.669 376.275C103.921 376.275 104.264 373.134 102.889 372.849C96.719 371.574 92.0278 369.814 89.9863 368.135C89.6183 367.833 89.1501 367.67 88.6771 367.67Z" fill="#263238"/>
<path d="M142.645 364.924L134.556 367.856C134.253 367.965 134.071 368.262 134.117 368.568L135.151 375.39C135.258 376.096 136.023 376.527 136.717 376.263C139.616 375.158 142.077 373.756 145.768 372.489C150.085 371.009 154.369 369.425 157.863 367.299C160.605 365.629 159.45 362.469 158.157 362.964C152.27 365.222 150.826 365.964 144.648 364.83C143.976 364.706 143.283 364.693 142.645 364.924Z" fill="#263238"/>
<path d="M121.747 137.853C124.241 142.062 126.867 146.401 129.514 150.599C132.159 154.816 134.879 158.984 137.762 162.891C138.461 163.881 139.235 164.827 139.932 165.743C140.221 166.152 140.344 166.27 140.547 166.425C140.754 166.569 141.237 166.7 141.984 166.64C142.723 166.59 143.661 166.384 144.63 166.039C146.59 165.356 148.688 164.235 150.74 162.981C151.759 162.34 152.795 161.68 153.809 160.978C154.808 160.285 155.844 159.509 156.767 158.828L161.21 162.608C160.358 163.792 159.527 164.798 158.61 165.838C157.707 166.866 156.766 167.877 155.745 168.831C154.733 169.797 153.658 170.728 152.492 171.607C151.331 172.491 150.085 173.339 148.679 174.086C147.273 174.83 145.724 175.523 143.871 175.956C142.038 176.376 139.804 176.539 137.48 175.938C135.148 175.37 133.045 173.945 131.65 172.421C130.7 171.369 129.773 170.387 128.907 169.347C125.394 165.235 122.295 160.979 119.354 156.648C116.429 152.286 113.726 147.92 111.168 143.279L121.747 137.853Z" fill="#B65B52"/>
<path d="M107.696 138.201C105.56 145.144 120.597 164.075 120.597 164.075L135.759 154.752C135.759 154.752 131.303 145.094 125.252 137.728C119.041 130.166 110.041 130.58 107.696 138.201Z" fill="#407BFF"/>
<path opacity="0.2" d="M107.696 138.201C105.56 145.144 120.597 164.075 120.597 164.075L135.759 154.752C135.759 154.752 131.303 145.094 125.252 137.728C119.041 130.166 110.041 130.58 107.696 138.201Z" fill="black"/>
<path opacity="0.2" d="M116.939 146.352C120.058 147.625 124.647 154.802 127.035 160.121L120.6 164.072C120.6 164.072 114.807 156.783 110.928 149.587C112.961 147.456 115.29 145.683 116.939 146.352Z" fill="black"/>
<path d="M155.835 161.189L158.612 153.755L166.496 157.35C166.496 157.35 164.859 163.98 159.091 163.969L155.835 161.189Z" fill="#B55B52"/>
<path d="M165.629 148.859L168.964 152.383L166.497 157.351L158.613 153.755L165.629 148.859Z" fill="#B55B52"/>
<path opacity="0.2" d="M138.486 348.625L140.825 357.442L133.415 360.127L131.077 351.311L138.486 348.625Z" fill="black"/>
<path opacity="0.2" d="M81.147 351.021H89.0726L88.4567 360.058H80.5311L81.147 351.021Z" fill="black"/>
<path d="M72.3851 135.13C80.9181 163.885 79.5218 194.396 80.0544 200.595C86.263 200.382 109.649 199.54 122.397 199.079C129.59 156.216 116.673 132.359 116.673 132.359C116.673 132.359 113.956 131.855 110.261 131.492C109.102 131.379 107.853 131.279 106.551 131.214C105.832 131.172 105.102 131.151 104.361 131.136C99.5807 131.061 91.7744 131.787 86.3963 132.415C85.2706 132.549 84.1231 132.711 83.0153 132.883C81.9861 133.052 80.9767 133.23 80.026 133.411C75.7132 134.233 72.3851 135.13 72.3851 135.13Z" fill="#407BFF"/>
<path opacity="0.2" d="M72.3851 135.13C80.9181 163.885 79.5218 194.396 80.0544 200.595C86.263 200.382 109.649 199.54 122.397 199.079C129.59 156.216 116.673 132.359 116.673 132.359C116.673 132.359 113.956 131.855 110.261 131.492C109.102 131.379 107.853 131.279 106.551 131.214C105.832 131.172 105.102 131.151 104.361 131.136C99.5807 131.061 91.7744 131.787 86.3963 132.415C85.2706 132.549 84.1231 132.711 83.0153 132.883C81.9861 133.052 80.9767 133.23 80.026 133.411C75.7132 134.233 72.3851 135.13 72.3851 135.13Z" fill="black"/>
<path opacity="0.2" d="M81.3996 147.466C82.1592 150.247 81.2908 162.942 78.2513 166.073C77.837 162.009 77.2845 157.764 76.5542 153.426L81.3996 147.466Z" fill="black"/>
<path d="M86.6735 112.959C88.2363 118.401 90.1557 128.44 86.3992 132.412C89.7726 135.172 94.1469 138.328 101.028 138.071C107.908 137.813 106.359 133.388 104.361 131.136C97.8023 130.124 97.6121 125.542 98.4011 121.171L86.6735 112.959Z" fill="#B55B52"/>
<path d="M101.203 137.135L102.453 137.943L97.8931 139.211L99.068 137.195L101.203 137.135Z" fill="#407BFF"/>
<path d="M102.924 136.711L102.453 137.943L107.031 139.211L106.722 136.871L102.924 136.711Z" fill="#407BFF"/>
<path d="M83.6614 131.996L85.4635 131.132C86.0491 130.85 86.7482 130.904 87.2742 131.277C89.1662 132.62 94.1998 135.79 101.203 137.135C97.5846 138.786 98.4795 143.213 98.4795 143.213C98.4795 143.213 86.9856 139.59 83.2953 133.033C83.0843 132.657 83.2631 132.187 83.6614 131.996Z" fill="white"/>
<path d="M106.37 130.856L103.728 130.476C103.421 130.432 103.212 130.759 103.391 131.001C104.314 132.252 105.846 135.017 102.925 136.712C106.543 138.363 107.669 142.402 107.669 142.402C107.669 142.402 112.379 137.544 106.888 131.136C106.759 130.986 106.571 130.885 106.37 130.856Z" fill="white"/>
<path opacity="0.2" d="M91.4546 116.311L98.3954 121.168C98.2053 122.203 98.0757 123.247 98.0785 124.254C95.5896 124.089 92.0071 121.747 91.554 119.302C91.3279 118.082 91.29 116.898 91.4546 116.311Z" fill="black"/>
<path d="M106.772 101.8C106.455 104.426 103.817 106.692 102.108 107.258L99.9828 95.814C104.761 92.5958 107.218 98.1084 106.772 101.8Z" fill="#263238"/>
<path d="M84.2802 104.955C85.6575 112.352 86.07 116.748 90.468 120.138C97.0833 125.237 106.295 120.766 107.259 113.126C108.126 106.248 105.728 95.3069 97.7399 93.1825C89.8701 91.0897 82.9028 97.5588 84.2802 104.955Z" fill="#B55B52"/>
<path d="M85.7512 109.943C89.3365 111.763 90.9154 107.671 90.9466 106.013C90.9949 103.37 89.7972 100.472 88.3707 99.4111C95.2916 99.3722 108.985 99.0838 105.531 92.7838C102.077 86.483 95.1601 87.2034 89.9458 90.6486C87.1901 92.4692 78.2787 90.8845 80.4876 95.796C75.8409 98.1545 79.8709 106.957 85.7512 109.943Z" fill="#263238"/>
<path d="M81.2473 95.3901C81.2473 95.3901 79.7214 95.5257 77.8313 94.28C78.3762 96.6195 80.8547 96.6738 80.8547 96.6738L81.2473 95.3901Z" fill="#263238"/>
<path d="M81.3693 111.039C82.3039 112.857 84.0304 114.093 85.6878 114.606C88.1814 115.376 88.7528 113.191 88.1474 110.89C87.6025 108.819 86.4285 105.999 83.8837 106.231C81.3768 106.459 80.3003 108.96 81.3693 111.039Z" fill="#B55B52"/>
<path d="M131.621 279.11C128.402 256.212 122.396 199.082 122.396 199.082L94.5613 200.08C94.5613 200.08 107.69 257.172 112.442 280.32C117.193 303.467 130.408 359.341 130.408 359.341L142.952 354.801C142.952 354.801 134.972 302.919 131.621 279.11Z" fill="#263238"/>
<path opacity="0.2" d="M104.954 215.472C103.217 215.887 100.474 216.906 98.7662 218.499C101.391 230.043 104.826 245.236 107.777 258.628C109.79 247.027 109.85 225.138 104.954 215.472Z" fill="black"/>
<path d="M107.378 199.62C107.378 199.62 101.472 261.595 98.7662 283.625C95.8033 307.749 92.1045 358.308 92.1045 358.308H77.5957C77.5957 358.308 76.994 313.591 78.8803 289.977C81.0287 263.078 80.0571 200.602 80.0571 200.602L107.378 199.62Z" fill="#263238"/>
<path d="M94.0324 358.608H76.9476L76.5881 353.73L95.6633 353.412L94.0324 358.608Z" fill="#407BFF"/>
<path d="M144.638 354.509L129.692 359.926L127.86 355.311L144.471 349.014L144.638 354.509Z" fill="#407BFF"/>
<path d="M96.3558 105.735C96.4286 106.342 96.824 106.797 97.2393 106.751C97.6546 106.705 97.9309 106.177 97.858 105.57C97.7852 104.963 97.3897 104.509 96.9745 104.555C96.5592 104.6 96.282 105.129 96.3558 105.735Z" fill="#263238"/>
<path d="M103.53 104.945C103.603 105.552 104 106.007 104.414 105.961C104.829 105.915 105.105 105.386 105.033 104.78C104.96 104.173 104.563 103.719 104.149 103.765C103.735 103.811 103.457 104.339 103.53 104.945Z" fill="#263238"/>
<path d="M101.285 105.499C101.285 105.499 103.151 108.839 104.944 110.352C103.942 111.478 101.977 111.23 101.977 111.23L101.285 105.499Z" fill="#A02724"/>
<path d="M99.4965 113.147C97.0444 113.102 95.7314 111.624 95.6709 111.554C95.6046 111.479 95.616 111.366 95.6954 111.302C95.7749 111.239 95.8932 111.25 95.9594 111.325C95.9745 111.342 97.508 113.058 100.285 112.752C100.389 112.741 100.481 112.812 100.494 112.91C100.506 113.008 100.431 113.097 100.329 113.108C100.039 113.141 99.7614 113.153 99.4965 113.147Z" fill="#263238"/>
<path d="M93.8763 103.765C93.8139 103.764 93.7505 103.748 93.6928 103.715C93.514 103.615 93.4554 103.395 93.5604 103.224C94.6152 101.516 96.3444 101.422 96.4182 101.42C96.6254 101.411 96.8004 101.564 96.8099 101.762C96.8193 101.959 96.6595 102.127 96.4532 102.137C96.3965 102.139 95.0484 102.225 94.2065 103.589C94.1355 103.704 94.0069 103.767 93.8763 103.765Z" fill="#263238"/>
<path d="M106.337 102.247C106.216 102.244 106.098 102.186 106.028 102.081C105.138 100.745 103.788 100.703 103.731 100.702C103.525 100.697 103.359 100.535 103.363 100.338C103.366 100.141 103.534 99.9824 103.741 99.9851C103.816 99.9878 105.546 100.022 106.662 101.695C106.773 101.863 106.721 102.084 106.547 102.191C106.481 102.231 106.408 102.248 106.337 102.247Z" fill="#263238"/>
<path d="M91.3658 368.993C90.6336 368.993 89.8351 368.847 89.2789 368.721C89.2041 368.704 89.1455 368.647 89.1304 368.575C89.1143 368.504 89.1446 368.432 89.207 368.394C89.487 368.222 91.9646 366.722 92.8623 367.152C93.0014 367.219 93.1755 367.361 93.2105 367.659C93.2578 368.061 93.1433 368.379 92.8718 368.607C92.5274 368.895 91.9684 368.993 91.3658 368.993ZM89.8096 368.469C91.168 368.727 92.2001 368.68 92.6154 368.333C92.798 368.18 92.8699 367.968 92.8368 367.682C92.8207 367.543 92.7592 367.496 92.7072 367.471C92.2399 367.248 90.818 367.895 89.8096 368.469Z" fill="#407BFF"/>
<path d="M89.3223 368.726C89.2863 368.726 89.2504 368.716 89.2182 368.697C89.1586 368.661 89.1227 368.599 89.1246 368.533C89.1274 368.441 89.2031 366.256 90.0867 365.537C90.3165 365.35 90.5814 365.272 90.8737 365.306C91.325 365.359 91.4565 365.624 91.4953 365.776C91.7072 366.621 90.2078 368.279 89.4103 368.705C89.3838 368.719 89.3535 368.726 89.3223 368.726ZM90.7621 365.658C90.6079 365.658 90.4689 365.71 90.3393 365.815C89.7726 366.276 89.5862 367.549 89.5266 368.187C90.3109 367.596 91.255 366.343 91.1301 365.844C91.1188 365.799 91.0923 365.692 90.8472 365.663C90.8189 365.66 90.7905 365.658 90.7621 365.658Z" fill="#407BFF"/>
<path d="M143.761 365.638C143.691 365.64 143.625 365.605 143.59 365.545C143.552 365.478 143.562 365.396 143.615 365.339C143.886 365.05 146.29 362.529 147.38 362.682C147.59 362.712 147.752 362.829 147.847 363.023C148.005 363.347 148.004 363.662 147.842 363.958C147.303 364.939 145.069 365.43 143.785 365.635C143.778 365.637 143.769 365.638 143.761 365.638ZM147.252 363.034C146.621 363.052 145.239 364.225 144.277 365.185C146.016 364.853 147.208 364.343 147.511 363.791C147.618 363.598 147.617 363.396 147.508 363.176C147.466 363.091 147.411 363.049 147.326 363.037C147.304 363.034 147.279 363.033 147.252 363.034Z" fill="#407BFF"/>
<path d="M143.761 365.638C143.743 365.639 143.725 365.637 143.707 365.632C143.643 365.616 143.592 365.568 143.574 365.506C143.551 365.422 142.994 363.443 143.643 362.363C143.84 362.033 144.13 361.818 144.502 361.723C145.003 361.595 145.235 361.778 145.341 361.954C145.794 362.706 144.63 364.878 143.889 365.586C143.854 365.618 143.808 365.637 143.761 365.638ZM144.791 362.039C144.74 362.041 144.677 362.049 144.598 362.069C144.323 362.14 144.117 362.294 143.968 362.541C143.541 363.252 143.731 364.487 143.856 365.078C144.561 364.223 145.288 362.584 145.015 362.133C144.999 362.106 144.956 362.035 144.791 362.039Z" fill="#407BFF"/>
<path d="M81.0949 145.831C78.7186 150.51 76.2968 155.339 73.9488 160.093C72.7843 162.484 71.616 164.869 70.513 167.263L68.8717 170.853L68.0874 172.649L67.8907 173.098L67.7535 173.431C67.657 173.645 67.5946 173.862 67.5104 174.077C66.9475 175.803 66.7952 177.617 67.2001 179.575C67.57 181.532 68.4696 183.585 69.6947 185.589C70.9235 187.593 72.4693 189.554 74.1995 191.416C75.0585 192.353 75.961 193.274 76.9079 194.157C77.3809 194.598 77.8634 195.032 78.3544 195.453C78.8245 195.874 79.359 196.325 79.7781 196.672L76.6222 201.49C75.155 200.777 73.9309 200.078 72.6557 199.271C71.3984 198.48 70.1658 197.644 68.9719 196.741C66.5975 194.924 64.3517 192.866 62.3622 190.453C60.3832 188.044 58.6445 185.248 57.583 181.99C56.5358 178.753 56.2681 175.014 57.1252 171.525C57.2397 171.095 57.3409 170.657 57.4799 170.236L57.8451 169.115L58.5158 167.122C58.9812 165.809 59.4429 164.488 59.9537 163.198C60.947 160.6 61.9867 158.034 63.1049 155.507C65.3157 150.422 67.7081 145.519 70.4118 140.594L81.0949 145.831Z" fill="#B65B52"/>
<path d="M72.387 135.131C65.1595 137.294 58.0522 160.712 58.0522 160.712L74.7747 167.706C74.7747 167.706 80.1849 156.389 83.2953 147.52C86.6829 137.86 81.1422 132.511 72.387 135.131Z" fill="#407BFF"/>
<path opacity="0.2" d="M72.387 135.131C65.1595 137.294 58.0522 160.712 58.0522 160.712L74.7747 167.706C74.7747 167.706 80.1849 156.389 83.2953 147.52C86.6829 137.86 81.1422 132.511 72.387 135.131Z" fill="black"/>
<path d="M78.0101 195.187L84.9263 199.116L78.1993 205.515C78.1993 205.515 72.3568 201.221 74.0993 197.856L78.0101 195.187Z" fill="#B55B52"/>
<path d="M89.5436 205.381L82.6066 210.024L78.1992 205.515L84.9262 199.116L89.5436 205.381Z" fill="#B55B52"/>
<path d="M424.165 193.485L423.835 197.843L424.78 197.908L425.11 193.551L424.165 193.485Z" fill="#407BFF"/>
<path d="M425.445 177.018L424.487 189.65L425.432 189.715L426.39 177.083L425.445 177.018Z" fill="#407BFF"/>
<path d="M399.519 319.076H167.808C160.728 319.076 155.35 313.541 155.858 306.774L168.118 143.334C168.625 136.568 174.833 131.032 181.913 131.032H413.623C420.703 131.032 426.081 136.567 425.573 143.334L413.314 306.774C412.806 313.541 406.598 319.076 399.519 319.076Z" fill="#407BFF"/>
<path d="M345.619 376.279H270.408L257.003 287.467H332.213L345.619 376.279Z" fill="#407BFF"/>
<path d="M333.677 370.987H252.318L250.702 376.279H332.061L333.677 370.987Z" fill="#407BFF"/>
<path d="M336.184 330.222L262.878 326.395L257.003 287.467H329.73L336.184 330.222Z" fill="#263238"/>
<path d="M396.903 319.076H165.192C158.113 319.076 152.735 313.541 153.243 306.774L165.502 143.334C166.009 136.568 172.217 131.032 179.297 131.032H411.008C418.088 131.032 423.466 136.567 422.958 143.334L410.698 306.774C410.19 313.541 403.983 319.076 396.903 319.076Z" fill="#263238"/>
<path d="M422.392 144.94L415.349 238.697L416.251 238.759L423.294 145.002L422.392 144.94Z" fill="white"/>
<path d="M414.739 246.85L412.304 279.314L413.206 279.375L415.641 246.912L414.739 246.85Z" fill="white"/>
<path d="M396.413 316.018H166.141C160.63 316.018 156.445 311.709 156.839 306.442L169.049 143.666C169.445 138.4 174.277 134.091 179.787 134.091H410.059C415.57 134.091 419.755 138.4 419.361 143.666L407.151 306.442C406.756 311.708 401.923 316.018 396.413 316.018Z" fill="white"/>
<path opacity="0.2" d="M396.413 316.018H166.141C160.63 316.018 156.445 311.709 156.839 306.442L169.049 143.666C169.445 138.4 174.277 134.091 179.787 134.091H410.059C415.57 134.091 419.755 138.4 419.361 143.666L407.151 306.442C406.756 311.708 401.923 316.018 396.413 316.018Z" fill="#407BFF"/>
<path opacity="0.5" d="M225.208 308.803H171.429C168.767 308.803 166.745 306.721 166.936 304.177L178.805 145.933C178.997 143.389 181.33 141.307 183.993 141.307H237.771C240.433 141.307 242.455 143.389 242.265 145.933L230.396 304.177C230.204 306.721 227.87 308.803 225.208 308.803Z" fill="white"/>
<path opacity="0.4" d="M223.126 163.614H195.292C192.894 163.614 191.072 161.739 191.244 159.447L191.55 155.369C191.722 153.077 193.825 151.202 196.223 151.202H224.056C226.455 151.202 228.277 153.077 228.104 155.369L227.799 159.447C227.627 161.739 225.524 163.614 223.126 163.614Z" fill="#407BFF"/>
<path d="M205.429 227.625H162.937C158.753 227.625 155.574 224.354 155.875 220.355L158.921 179.751C159.221 175.752 162.89 172.481 167.074 172.481H209.566C213.75 172.481 216.928 175.752 216.627 179.751L213.581 220.355C213.281 224.354 209.613 227.625 205.429 227.625Z" fill="#407BFF"/>
<path d="M211.521 194.334C209.926 194.334 208.528 195.58 208.413 197.105L207.971 203C207.857 204.525 209.069 205.771 210.663 205.771H214.977C215.374 205.771 215.719 205.464 215.748 205.084L216.502 195.022C216.531 194.642 216.232 194.335 215.835 194.335H211.521V194.334Z" fill="white"/>
<path d="M195.126 182.813H168.342C167.702 182.813 167.217 182.313 167.262 181.702C167.308 181.091 167.869 180.591 168.508 180.591H195.292C195.932 180.591 196.417 181.091 196.372 181.702C196.325 182.314 195.764 182.813 195.126 182.813Z" fill="white"/>
<path d="M194.701 188.468H167.917C167.277 188.468 166.792 187.968 166.838 187.357C166.883 186.746 167.444 186.246 168.083 186.246H194.868C195.507 186.246 195.992 186.746 195.947 187.357C195.902 187.969 195.341 188.468 194.701 188.468Z" fill="white"/>
<path d="M185.022 194.123H167.493C166.854 194.123 166.368 193.623 166.414 193.012C166.459 192.401 167.02 191.901 167.66 191.901H185.189C185.828 191.901 186.314 192.401 186.268 193.012C186.222 193.623 185.662 194.123 185.022 194.123Z" fill="white"/>
<path opacity="0.5" d="M195.195 221.064H169.282C166.547 221.064 164.47 218.926 164.665 216.312L165.641 203.302C165.837 200.689 168.235 198.55 170.971 198.55H196.883C199.618 198.55 201.696 200.689 201.5 203.302L200.525 216.312C200.329 218.926 197.931 221.064 195.195 221.064Z" fill="white"/>
<path opacity="0.4" d="M219.388 242.833H187.146C185.96 242.833 185.059 241.906 185.145 240.773C185.23 239.64 186.269 238.713 187.456 238.713H219.697C220.884 238.713 221.784 239.64 221.699 240.773C221.614 241.906 220.574 242.833 219.388 242.833Z" fill="#407BFF"/>
<path opacity="0.8" d="M212.89 250.921H192.431C191.244 250.921 190.344 249.993 190.429 248.86C190.514 247.727 191.554 246.8 192.74 246.8H213.199C214.385 246.8 215.286 247.728 215.201 248.86C215.116 249.994 214.076 250.921 212.89 250.921Z" fill="white"/>
<path opacity="0.4" d="M217.713 265.15H185.472C184.286 265.15 183.385 264.223 183.47 263.09C183.555 261.957 184.595 261.03 185.781 261.03H218.023C219.209 261.03 220.11 261.958 220.025 263.09C219.939 264.224 218.9 265.15 217.713 265.15Z" fill="#407BFF"/>
<path opacity="0.8" d="M211.216 273.238H190.757C189.571 273.238 188.67 272.31 188.755 271.177C188.841 270.044 189.88 269.117 191.067 269.117H211.526C212.712 269.117 213.613 270.045 213.527 271.177C213.441 272.311 212.402 273.238 211.216 273.238Z" fill="white"/>
<path opacity="0.4" d="M216.04 287.467H183.798C182.612 287.467 181.712 286.54 181.797 285.407C181.882 284.274 182.922 283.347 184.108 283.347H216.349C217.536 283.347 218.436 284.275 218.351 285.407C218.266 286.541 217.226 287.467 216.04 287.467Z" fill="#407BFF"/>
<path opacity="0.8" d="M209.542 295.555H189.083C187.896 295.555 186.996 294.627 187.081 293.494C187.166 292.361 188.206 291.434 189.392 291.434H209.851C211.038 291.434 211.938 292.362 211.853 293.494C211.768 294.628 210.728 295.555 209.542 295.555Z" fill="white"/>
<path opacity="0.5" d="M398.911 262.4C400.309 260.363 403.513 261.224 403.336 263.584L400.234 304.943C400.074 307.073 398.391 308.805 396.479 308.805H240.544C238.632 308.805 237.209 307.073 237.368 304.943L239.211 280.37C239.46 277.056 242.989 274.67 246.233 275.636C255.023 278.254 262.553 276.716 269.551 273.4C284.521 266.299 297.045 251.059 314.255 251.059C314.914 251.059 315.564 251.075 316.196 251.115C341.795 252.591 349.593 282.976 369.425 282.976C375.287 282.976 380.637 280.558 385.295 277.111C391.003 272.893 395.662 267.137 398.911 262.4Z" fill="#407BFF"/>
<path opacity="0.5" d="M402.146 279.44L400.234 304.942C400.074 307.073 398.391 308.804 396.479 308.804H240.544C238.632 308.804 237.209 307.073 237.368 304.942L241.169 254.265C241.43 250.794 246.19 249.334 248.117 252.143C253.092 259.396 260.748 268.764 269.551 273.399C272.926 275.171 276.46 276.248 280.084 276.248C292.684 276.248 303.399 261.966 316.196 251.113C324.043 244.459 332.67 239.088 342.991 239.088C364.535 239.088 367.711 272.537 385.295 277.109C388.686 277.995 392.608 277.804 397.304 276.088C399.82 275.171 402.336 276.927 402.146 279.44Z" fill="#407BFF"/>
<g opacity="0.8">
<path d="M402.911 269.555C402.825 269.555 402.75 269.519 402.684 269.464C402.655 269.437 402.627 269.401 402.618 269.365C402.599 269.329 402.589 269.284 402.589 269.247C402.589 269.157 402.627 269.085 402.685 269.03C402.798 268.913 403.016 268.904 403.139 269.03C403.205 269.086 403.234 269.166 403.234 269.247C403.234 269.284 403.225 269.329 403.215 269.365C403.196 269.401 403.167 269.437 403.139 269.464C403.081 269.519 402.996 269.555 402.911 269.555Z" fill="white"/>
<path d="M251.295 290.735C251.117 290.735 250.974 290.6 250.974 290.427C250.974 290.264 251.116 290.129 251.295 290.129V290.12C251.476 290.12 251.617 290.264 251.617 290.427C251.617 290.599 251.476 290.744 251.295 290.744C251.295 290.744 251.295 290.744 251.295 290.735ZM248.051 290.564C248.051 290.564 248.051 290.564 248.06 290.564C247.881 290.555 247.748 290.401 247.767 290.229C247.786 290.057 247.946 289.94 248.126 289.958C248.305 289.976 248.428 290.13 248.41 290.292C248.39 290.455 248.249 290.573 248.089 290.573C248.079 290.573 248.069 290.573 248.051 290.564ZM254.171 290.292C254.152 290.121 254.275 289.967 254.455 289.949C254.635 289.93 254.796 290.047 254.815 290.22C254.834 290.391 254.711 290.545 254.531 290.564C254.521 290.564 254.503 290.564 254.493 290.564C254.332 290.564 254.19 290.446 254.171 290.292ZM244.853 290.093C244.682 290.057 244.569 289.894 244.597 289.723C244.635 289.559 244.806 289.451 244.985 289.478C245.155 289.514 245.268 289.677 245.241 289.849C245.203 289.993 245.07 290.093 244.918 290.093C244.9 290.093 244.872 290.093 244.853 290.093ZM257.331 289.786C257.284 289.614 257.389 289.452 257.567 289.407C257.739 289.37 257.908 289.47 257.955 289.633C258.003 289.795 257.889 289.967 257.719 290.012C257.719 290.012 257.719 290.012 257.719 290.003C257.69 290.012 257.662 290.012 257.643 290.012C257.492 290.012 257.359 289.922 257.331 289.786ZM360.795 289.913C360.616 289.913 360.473 289.777 360.473 289.605C360.473 289.433 360.625 289.297 360.795 289.297C360.976 289.297 361.117 289.433 361.117 289.605C361.116 289.777 360.975 289.913 360.795 289.913ZM363.68 289.479C363.661 289.307 363.794 289.153 363.965 289.144C364.144 289.117 364.305 289.244 364.324 289.416C364.343 289.587 364.211 289.741 364.031 289.759C364.022 289.759 364.012 289.759 364.004 289.759C363.84 289.758 363.699 289.641 363.68 289.479ZM357.56 289.723C357.389 289.704 357.257 289.551 357.285 289.379C357.305 289.207 357.465 289.09 357.645 289.107C357.824 289.134 357.947 289.288 357.929 289.451C357.901 289.614 357.768 289.731 357.607 289.731C357.588 289.732 357.579 289.732 357.56 289.723ZM241.712 289.352C241.542 289.306 241.438 289.135 241.485 288.973C241.543 288.809 241.712 288.71 241.893 288.756C242.063 288.81 242.157 288.973 242.111 289.144C242.073 289.28 241.94 289.361 241.799 289.361C241.768 289.361 241.741 289.361 241.712 289.352ZM366.859 289.054C366.821 288.882 366.934 288.72 367.114 288.692C367.285 288.656 367.455 288.765 367.493 288.936C367.53 289.099 367.417 289.261 367.237 289.297C367.217 289.297 367.199 289.306 367.179 289.306C367.028 289.306 366.887 289.199 366.859 289.054ZM354.38 289.162C354.2 289.126 354.096 288.963 354.144 288.792C354.181 288.628 354.353 288.53 354.531 288.566C354.703 288.602 354.806 288.774 354.768 288.936C354.73 289.08 354.598 289.172 354.456 289.172C354.428 289.172 354.4 289.171 354.38 289.162ZM260.396 288.909C260.33 288.747 260.416 288.566 260.585 288.512C260.746 288.449 260.935 288.53 261 288.683C261.058 288.846 260.982 289.027 260.812 289.08C260.774 289.099 260.737 289.107 260.699 289.107C260.566 289.108 260.443 289.027 260.396 288.909ZM369.989 288.376C369.942 288.204 370.037 288.032 370.216 287.986C370.387 287.941 370.566 288.041 370.613 288.203C370.661 288.367 370.557 288.538 370.387 288.583C370.359 288.593 370.33 288.602 370.301 288.602C370.16 288.602 370.027 288.511 369.989 288.376ZM351.278 288.268C351.107 288.212 351.022 288.032 351.08 287.879C351.145 287.715 351.325 287.634 351.496 287.689C351.667 287.751 351.752 287.924 351.694 288.086C351.647 288.212 351.516 288.285 351.382 288.285C351.343 288.285 351.306 288.285 351.278 288.268ZM263.338 287.689C263.253 287.544 263.319 287.354 263.479 287.272C263.64 287.201 263.829 287.263 263.914 287.417C263.99 287.561 263.934 287.751 263.773 287.824C263.726 287.851 263.678 287.86 263.622 287.86C263.508 287.861 263.395 287.797 263.338 287.689ZM373.064 287.472C372.998 287.308 373.092 287.138 373.253 287.082L373.262 287.073C373.424 287.019 373.612 287.109 373.67 287.263C373.727 287.427 373.642 287.607 373.471 287.661C373.434 287.67 373.405 287.679 373.367 287.679C373.235 287.679 373.112 287.599 373.064 287.472ZM348.289 287.092C348.128 287.029 348.052 286.839 348.128 286.686C348.204 286.532 348.393 286.469 348.554 286.532C348.724 286.604 348.79 286.785 348.715 286.948C348.658 287.056 348.543 287.128 348.421 287.128C348.374 287.128 348.327 287.119 348.289 287.092ZM376.063 286.387C375.997 286.233 376.073 286.053 376.242 285.989C376.403 285.917 376.592 285.989 376.658 286.153C376.734 286.307 376.658 286.488 376.487 286.56C376.449 286.578 376.402 286.578 376.364 286.578C376.234 286.577 376.12 286.505 376.063 286.387ZM266.138 286.206C266.043 286.062 266.091 285.863 266.241 285.772C266.393 285.681 266.591 285.726 266.687 285.871C266.781 286.016 266.734 286.205 266.583 286.297C266.535 286.333 266.469 286.351 266.413 286.351C266.308 286.351 266.203 286.297 266.138 286.206ZM345.404 285.709C345.243 285.628 345.186 285.438 345.27 285.284C345.355 285.14 345.555 285.085 345.716 285.167C345.866 285.248 345.924 285.429 345.839 285.583C345.781 285.681 345.667 285.745 345.555 285.745C345.507 285.745 345.451 285.726 345.404 285.709ZM379.005 285.149C378.93 284.995 378.996 284.814 379.157 284.742C379.318 284.67 379.516 284.733 379.592 284.887C379.668 285.04 379.592 285.221 379.431 285.293C379.431 285.293 379.431 285.293 379.441 285.302C379.393 285.32 379.346 285.33 379.3 285.33C379.175 285.33 379.062 285.266 379.005 285.149ZM268.805 284.507C268.702 284.362 268.74 284.172 268.881 284.074C269.023 283.974 269.231 284.002 269.335 284.136C269.438 284.272 269.401 284.471 269.259 284.57C269.201 284.606 269.136 284.633 269.07 284.633C268.966 284.633 268.872 284.588 268.805 284.507ZM342.613 284.163C342.613 284.163 342.613 284.163 342.613 284.154C342.461 284.073 342.414 283.882 342.509 283.738C342.594 283.585 342.793 283.539 342.944 283.63C343.105 283.72 343.153 283.91 343.057 284.055C342.991 284.154 342.887 284.209 342.783 284.209C342.726 284.209 342.66 284.19 342.613 284.163ZM381.881 283.775C381.796 283.63 381.853 283.44 382.014 283.359C382.165 283.277 382.364 283.34 382.45 283.485C382.535 283.639 382.477 283.82 382.316 283.91C382.269 283.929 382.213 283.946 382.165 283.946C382.051 283.946 381.938 283.882 381.881 283.775ZM271.379 282.654C271.266 282.518 271.283 282.328 271.426 282.22C271.567 282.111 271.767 282.138 271.88 282.266C271.994 282.401 271.966 282.599 271.833 282.708C271.768 282.753 271.701 282.771 271.625 282.771C271.53 282.771 271.436 282.735 271.379 282.654ZM339.888 282.518C339.888 282.518 339.888 282.518 339.888 282.509C339.737 282.419 339.699 282.229 339.794 282.084C339.898 281.94 340.096 281.903 340.248 281.994C340.389 282.084 340.437 282.283 340.342 282.42C340.277 282.518 340.172 282.563 340.068 282.563C340.002 282.562 339.945 282.545 339.888 282.518ZM384.69 282.292C384.595 282.138 384.652 281.958 384.803 281.867C384.955 281.786 385.153 281.831 385.249 281.976C385.334 282.12 385.287 282.31 385.136 282.401C385.079 282.428 385.022 282.446 384.964 282.446C384.861 282.446 384.748 282.391 384.69 282.292ZM337.211 280.81C337.069 280.71 337.022 280.52 337.126 280.376C337.229 280.241 337.428 280.205 337.58 280.294C337.722 280.394 337.76 280.584 337.665 280.728C337.6 280.819 337.495 280.864 337.391 280.864C337.334 280.864 337.268 280.846 337.211 280.81ZM387.434 280.701C387.34 280.556 387.387 280.367 387.538 280.267C387.689 280.177 387.888 280.222 387.983 280.367C388.078 280.511 388.03 280.701 387.879 280.791C387.832 280.828 387.776 280.846 387.709 280.846C387.604 280.846 387.501 280.791 387.434 280.701ZM273.867 280.718C273.753 280.592 273.771 280.394 273.905 280.285C274.047 280.177 274.255 280.195 274.368 280.321C274.481 280.457 274.463 280.647 274.32 280.754C274.263 280.81 274.188 280.827 274.112 280.827C274.028 280.827 273.932 280.791 273.867 280.718ZM390.129 279.019C390.026 278.875 390.064 278.684 390.205 278.585C390.356 278.485 390.555 278.521 390.659 278.666C390.754 278.802 390.725 279.001 390.574 279.091C390.517 279.127 390.451 279.146 390.394 279.146C390.29 279.146 390.187 279.101 390.129 279.019ZM334.552 279.091C334.402 278.992 334.364 278.803 334.467 278.666C334.562 278.521 334.76 278.485 334.912 278.576C335.063 278.674 335.101 278.864 334.998 279.009C334.941 279.1 334.837 279.144 334.733 279.144C334.676 279.146 334.61 279.128 334.552 279.091ZM276.335 278.748C276.212 278.622 276.232 278.424 276.373 278.314C276.506 278.206 276.714 278.223 276.827 278.351C276.941 278.485 276.922 278.675 276.789 278.784C276.723 278.839 276.657 278.856 276.581 278.856C276.487 278.857 276.393 278.821 276.335 278.748ZM331.885 277.392C331.734 277.294 331.687 277.103 331.79 276.968C331.885 276.823 332.092 276.778 332.235 276.876C332.386 276.967 332.423 277.157 332.33 277.302C332.273 277.392 332.169 277.437 332.065 277.437C331.999 277.437 331.942 277.429 331.885 277.392ZM392.76 277.248C392.647 277.112 392.685 276.923 392.826 276.823C392.967 276.723 393.177 276.751 393.28 276.886C393.384 277.022 393.346 277.221 393.204 277.319C393.147 277.355 393.081 277.374 393.016 277.374C392.921 277.374 392.817 277.338 392.76 277.248ZM278.805 276.787C278.692 276.66 278.711 276.461 278.852 276.354C278.994 276.245 279.193 276.271 279.307 276.399C279.42 276.534 279.401 276.733 279.259 276.832C279.202 276.887 279.126 276.904 279.05 276.904C278.966 276.904 278.871 276.868 278.805 276.787ZM329.188 275.738C329.037 275.648 328.989 275.458 329.085 275.313C329.18 275.169 329.378 275.123 329.53 275.214C329.681 275.304 329.728 275.494 329.634 275.64C329.567 275.738 329.462 275.793 329.359 275.793C329.303 275.792 329.236 275.774 329.188 275.738ZM395.332 275.413C395.22 275.277 395.247 275.078 395.39 274.979C395.531 274.87 395.73 274.897 395.844 275.034C395.948 275.169 395.92 275.358 395.787 275.467C395.787 275.467 395.787 275.467 395.778 275.467C395.721 275.512 395.655 275.53 395.589 275.53C395.485 275.53 395.39 275.485 395.332 275.413ZM281.321 274.888C281.217 274.753 281.246 274.554 281.388 274.454C281.529 274.356 281.727 274.382 281.841 274.518C281.945 274.652 281.917 274.842 281.775 274.952C281.718 274.988 281.652 275.015 281.586 275.015C281.482 275.015 281.388 274.97 281.321 274.888ZM326.435 274.174C326.285 274.093 326.227 273.903 326.323 273.748C326.408 273.605 326.607 273.549 326.758 273.641C326.919 273.722 326.975 273.912 326.881 274.057C326.823 274.155 326.71 274.219 326.597 274.219C326.55 274.219 326.493 274.2 326.435 274.174ZM397.84 273.496C397.727 273.369 397.746 273.171 397.888 273.062C398.029 272.954 398.228 272.972 398.342 273.107C398.455 273.235 398.436 273.433 398.304 273.541C398.238 273.587 398.162 273.614 398.095 273.614C398.001 273.614 397.907 273.578 397.84 273.496ZM283.932 273.098C283.829 272.954 283.866 272.764 284.018 272.664C284.169 272.573 284.368 272.61 284.472 272.755C284.566 272.89 284.528 273.089 284.376 273.18C284.319 273.216 284.264 273.234 284.196 273.234C284.093 273.234 283.989 273.18 283.932 273.098ZM323.627 272.719C323.475 272.646 323.409 272.457 323.494 272.303C323.57 272.149 323.769 272.096 323.929 272.167C324.081 272.25 324.147 272.439 324.07 272.593C324.014 272.692 323.891 272.756 323.777 272.756C323.731 272.755 323.673 272.746 323.627 272.719ZM400.299 271.516C400.186 271.39 400.196 271.192 400.327 271.082H400.337C400.47 270.974 400.668 270.983 400.791 271.109C400.904 271.236 400.885 271.434 400.753 271.543C400.695 271.597 400.621 271.624 400.545 271.624C400.451 271.625 400.366 271.589 400.299 271.516ZM286.647 271.462C286.553 271.318 286.61 271.128 286.77 271.036C286.922 270.955 287.12 271.01 287.206 271.155C287.291 271.308 287.243 271.488 287.083 271.58C287.083 271.58 287.083 271.58 287.092 271.58C287.035 271.607 286.979 271.616 286.931 271.616C286.818 271.616 286.703 271.561 286.647 271.462ZM320.751 271.407C320.59 271.335 320.514 271.155 320.59 271C320.656 270.847 320.855 270.774 321.016 270.847C321.176 270.91 321.252 271.091 321.176 271.253C321.129 271.362 321.006 271.434 320.883 271.434C320.835 271.435 320.797 271.426 320.751 271.407ZM317.799 270.26C317.629 270.205 317.544 270.025 317.611 269.862C317.668 269.708 317.857 269.627 318.026 269.681C318.187 269.745 318.272 269.917 318.215 270.079C318.168 270.206 318.045 270.278 317.913 270.278C317.875 270.277 317.836 270.277 317.799 270.26ZM289.485 270.043C289.419 269.889 289.485 269.699 289.646 269.636C289.807 269.564 290.006 269.627 290.081 269.79C290.148 269.943 290.081 270.124 289.911 270.197C289.873 270.216 289.826 270.224 289.778 270.224C289.656 270.224 289.541 270.16 289.485 270.043ZM314.772 269.311C314.601 269.255 314.507 269.094 314.554 268.921C314.602 268.758 314.791 268.669 314.961 268.714C315.132 268.759 315.226 268.931 315.179 269.103C315.132 269.229 315.009 269.32 314.867 269.32C314.838 269.32 314.81 269.32 314.772 269.311ZM292.455 268.886C292.398 268.723 292.493 268.551 292.664 268.497C292.834 268.443 293.014 268.533 293.071 268.696C293.128 268.86 293.033 269.03 292.863 269.086C292.834 269.095 292.796 269.104 292.759 269.104C292.626 269.103 292.503 269.021 292.455 268.886ZM311.687 268.56C311.517 268.524 311.403 268.361 311.441 268.199C311.479 268.028 311.649 267.918 311.829 267.964C311.999 267.991 312.113 268.154 312.075 268.324C312.047 268.469 311.905 268.569 311.753 268.569C311.735 268.569 311.716 268.569 311.687 268.56ZM295.529 268.045C295.492 267.873 295.605 267.711 295.785 267.674C295.955 267.638 296.125 267.747 296.162 267.909C296.2 268.081 296.097 268.244 295.916 268.28C295.897 268.28 295.869 268.289 295.851 268.289C295.701 268.288 295.568 268.19 295.529 268.045ZM308.557 268.036C308.387 268.009 308.254 267.855 308.282 267.683C308.301 267.511 308.472 267.394 308.642 267.42H308.651C308.823 267.439 308.946 267.601 308.926 267.774C308.898 267.918 308.765 268.036 308.604 268.036C308.585 268.036 308.576 268.036 308.557 268.036ZM298.69 267.521C298.67 267.35 298.803 267.204 298.974 267.186C299.153 267.159 299.313 267.286 299.333 267.457C299.352 267.629 299.22 267.775 299.04 267.802C299.031 267.802 299.021 267.802 299.013 267.802C298.851 267.801 298.709 267.683 298.69 267.521ZM305.387 267.719C305.387 267.719 305.387 267.719 305.397 267.719C305.216 267.71 305.076 267.565 305.094 267.394C305.104 267.222 305.255 267.096 305.435 267.105C305.615 267.114 305.747 267.268 305.737 267.439C305.727 267.602 305.586 267.729 305.415 267.729C305.407 267.729 305.397 267.719 305.387 267.719ZM301.888 267.322C301.877 267.15 302.028 267.014 302.209 267.014C302.379 267.005 302.531 267.149 302.531 267.322C302.531 267.493 302.389 267.629 302.209 267.629C302.029 267.629 301.888 267.493 301.888 267.322Z" fill="white"/>
<path d="M238.629 288.385C238.591 288.385 238.543 288.376 238.506 288.358C238.468 288.34 238.43 288.322 238.402 288.286C238.373 288.259 238.345 288.231 238.335 288.187C238.316 288.151 238.308 288.115 238.308 288.07C238.308 287.987 238.346 287.916 238.402 287.853C238.431 287.825 238.469 287.798 238.507 287.789C238.582 287.753 238.677 287.753 238.752 287.789C238.8 287.798 238.828 287.825 238.857 287.853C238.922 287.916 238.951 287.987 238.951 288.07C238.951 288.115 238.951 288.151 238.932 288.187C238.913 288.232 238.895 288.259 238.857 288.286C238.829 288.322 238.791 288.341 238.753 288.358C238.714 288.376 238.676 288.385 238.629 288.385Z" fill="white"/>
</g>
<path d="M290.502 195.813L288.294 193.538C284.372 197.035 279.154 199.196 273.57 199.196C264.215 199.196 256.799 193.123 255.111 184.876L251.798 185.708L248.771 186.468C249.661 190.791 251.743 194.729 254.814 197.89C264.416 207.774 281.435 207.774 292.519 197.89L290.502 195.813Z" fill="white"/>
<path d="M295.223 161.859L292.332 164.437L290.336 166.217C293.733 169.707 295.638 174.539 295.238 179.874C294.838 185.21 292.215 190.043 288.293 193.538L290.024 195.319L292.521 197.89C297.879 193.112 301.175 186.632 301.682 179.874C302.187 173.123 299.865 166.636 295.223 161.859Z" fill="#263238"/>
<path d="M295.223 161.859C285.621 151.981 268.601 151.981 257.517 161.859C250.314 168.289 246.97 177.688 248.771 186.468L252.515 185.528L255.11 184.876C254.787 183.282 254.676 181.6 254.806 179.874C255.606 169.209 265.307 160.559 276.468 160.559C282.051 160.559 286.939 162.719 290.336 166.216L292.894 163.935L295.223 161.859Z" fill="#407BFF"/>
<path d="M322.393 195.814L324.943 193.539C321.547 190.043 319.648 185.211 320.048 179.875C320.719 170.936 327.638 163.414 336.433 161.209L335.795 158.103L335.212 155.266C330.601 156.426 326.31 158.698 322.765 161.859C311.68 171.744 310.46 188.008 320.062 197.891L322.393 195.814Z" fill="white"/>
<path d="M357.77 197.89L355.265 195.312L353.536 193.532C349.622 197.029 344.403 199.196 338.819 199.196C333.236 199.196 328.341 197.035 324.944 193.538L322.947 195.319L320.065 197.89C324.707 202.669 331.286 205.353 338.358 205.353C345.42 205.354 352.41 202.669 357.77 197.89Z" fill="#263238"/>
<path d="M357.77 197.89C368.846 188.006 370.067 171.742 360.472 161.859C354.225 155.436 344.578 152.914 335.213 155.265L335.933 158.776L336.433 161.209C338.132 160.787 339.909 160.56 341.716 160.56C352.877 160.56 361.28 169.21 360.48 179.875C360.08 185.212 357.456 190.037 353.535 193.533L355.751 195.814L357.77 197.89Z" fill="#407BFF"/>
<path opacity="0.3" d="M402.449 156.668C402.99 156.668 403.483 156.868 403.837 157.231C404.193 157.596 404.368 158.084 404.328 158.605L403.159 174.198C403.075 175.31 402.023 176.249 400.861 176.249H384.543C384.002 176.249 383.509 176.049 383.156 175.686C382.8 175.321 382.626 174.833 382.665 174.312L383.834 158.719C383.917 157.607 384.97 156.668 386.132 156.668H402.449ZM402.449 155.87H386.132C384.525 155.87 383.116 157.127 383 158.662L381.831 174.255C381.716 175.791 382.936 177.047 384.543 177.047H400.861C402.468 177.047 403.877 175.79 403.992 174.255L405.161 158.662C405.277 157.127 404.056 155.87 402.449 155.87Z" fill="#407BFF"/>
<path opacity="0.3" d="M400.437 183.499C400.978 183.499 401.471 183.7 401.825 184.063C402.181 184.428 402.355 184.915 402.316 185.436L401.147 201.029C401.063 202.141 400.011 203.08 398.849 203.08H382.531C381.99 203.08 381.497 202.88 381.143 202.517C380.788 202.152 380.614 201.664 380.653 201.144L381.822 185.551C381.905 184.439 382.958 183.499 384.12 183.499H400.437ZM400.437 182.701H384.12C382.513 182.701 381.104 183.958 380.989 185.493L379.819 201.086C379.704 202.622 380.924 203.877 382.531 203.877H398.849C400.455 203.877 401.865 202.621 401.98 201.086L403.149 185.493C403.265 183.958 402.043 182.701 400.437 182.701Z" fill="#407BFF"/>
<path d="M376.548 269.78C377.006 269.78 377.421 269.947 377.717 270.251C378.014 270.555 378.16 270.967 378.127 271.408C378.055 272.368 377.18 273.15 376.175 273.15C375.717 273.15 375.302 272.983 375.006 272.68C374.709 272.374 374.563 271.964 374.596 271.523C374.669 270.561 375.544 269.78 376.548 269.78ZM376.548 268.982C375.113 268.982 373.867 270.093 373.764 271.464C373.661 272.835 374.741 273.946 376.175 273.946C377.609 273.946 378.856 272.835 378.959 271.464C379.062 270.093 377.983 268.982 376.548 268.982Z" fill="#407BFF"/>
<path d="M376.756 268.995L376.34 268.967L376.4 268.172L376.815 268.201L376.756 268.995Z" fill="#407BFF"/>
<path d="M376.937 266.567L376.521 266.539L376.644 264.906L377.06 264.934L376.937 266.567ZM377.182 263.303L376.767 263.275L376.89 261.641L377.306 261.669L377.182 263.303ZM377.427 260.036L377.011 260.008L377.134 258.376L377.55 258.404L377.427 260.036ZM377.672 256.772L377.255 256.744L377.378 255.111L377.795 255.139L377.672 256.772ZM377.917 253.507L377.501 253.479L377.624 251.846L378.04 251.874L377.917 253.507ZM378.163 250.242L377.747 250.214L377.869 248.58L378.285 248.608L378.163 250.242ZM378.408 246.976L377.992 246.948L378.114 245.316L378.53 245.344L378.408 246.976ZM378.653 243.712L378.236 243.684L378.358 242.051L378.774 242.079L378.653 243.712ZM378.897 240.446L378.481 240.418L378.604 238.785L379.021 238.813L378.897 240.446ZM379.142 237.182L378.725 237.154L378.848 235.52L379.264 235.548L379.142 237.182ZM379.387 233.916L378.97 233.888L379.093 232.256L379.51 232.284L379.387 233.916Z" fill="#407BFF"/>
<path d="M379.268 229.818L379.209 230.613L379.625 230.641L379.684 229.846L379.268 229.818Z" fill="#407BFF"/>
<path d="M397.116 230.275H247.318C246.474 230.275 245.698 229.957 245.135 229.379C244.57 228.8 244.294 228.036 244.356 227.225L245.094 217.37C245.217 215.723 246.721 214.382 248.445 214.382H398.243C399.088 214.382 399.864 214.699 400.426 215.276C400.991 215.855 401.268 216.62 401.206 217.432L400.467 227.286C400.343 228.934 398.839 230.275 397.116 230.275ZM248.446 215.247C247.186 215.247 246.088 216.227 245.997 217.432L245.258 227.286C245.216 227.855 245.408 228.389 245.798 228.79C246.187 229.189 246.727 229.41 247.318 229.41H397.116C398.376 229.41 399.474 228.43 399.566 227.225L400.305 217.37C400.347 216.802 400.155 216.267 399.764 215.866C399.375 215.468 398.836 215.247 398.244 215.247H248.446Z" fill="#407BFF"/>
<path opacity="0.8" fill-rule="evenodd" clip-rule="evenodd" d="M393.899 220.735H251.902C251.13 220.735 250.544 220.132 250.599 219.395C250.654 218.657 251.331 218.054 252.103 218.054H394.102C394.874 218.054 395.459 218.657 395.404 219.395C395.349 220.131 394.671 220.735 393.899 220.735Z" fill="white"/>
<path opacity="0.8" fill-rule="evenodd" clip-rule="evenodd" d="M370.235 226.39H251.477C250.705 226.39 250.12 225.786 250.174 225.049C250.229 224.311 250.907 223.708 251.679 223.708H370.436C371.208 223.708 371.793 224.312 371.738 225.049C371.683 225.786 371.007 226.39 370.235 226.39Z" fill="white"/>
</svg>
